<svg id="Layer_1" data-name="Layer 1" xmlns="http://www.w3.org/2000/svg" viewBox="0 0 16 16"><defs><style>.cls-1{fill:#1f7ee2;}</style></defs><path class="cls-1" d="M11.17,14H2.53A2.48,2.48,0,0,1,.05,11.47V4.53A2.48,2.48,0,0,1,2.53,2.05h8.64a2.48,2.48,0,0,1,2.48,2.48V6.3l1.68.93a1.22,1.22,0,0,1,0,2.12l-1.68.92v1.2A2.48,2.48,0,0,1,11.17,14ZM2.53,3.55a1,1,0,0,0-1,1v6.94a1,1,0,0,0,1,1h8.64a1,1,0,0,0,1-1V9.83a.77.77,0,0,1,.39-.66l1.59-.88L12.54,7.4a.74.74,0,0,1-.39-.65V4.53a1,1,0,0,0-1-1Z"/><path class="cls-1" d="M6.85,9.26a.81.81,0,0,1-.55-.21L.39,3.7,1.5,2.47,6.85,7.32,12.2,2.47,13.31,3.7,7.41,9.05A.85.85,0,0,1,6.85,9.26Z"/></svg>