<svg id="Layer_1" data-name="Layer 1" xmlns="http://www.w3.org/2000/svg" viewBox="0 0 403.57 73.34"><defs><style>.cls-1,.cls-2{fill:none;stroke:#1f7ee2;stroke-linejoin:round;}.cls-1{stroke-linecap:round;stroke-width:9.1px;}.cls-2{stroke-width:10.01px;}.cls-3{font-size:71px;fill:#333;font-family:ArialRoundedMTBold, Arial Rounded MT Bold;letter-spacing:-0.01em;}.cls-4{letter-spacing:-0.01em;}.cls-5{letter-spacing:0em;}.cls-6{letter-spacing:-0.01em;}.cls-7{letter-spacing:0.01em;}.cls-8{letter-spacing:-0.01em;}.cls-9{letter-spacing:0.02em;}.cls-10{letter-spacing:0.02em;}</style></defs><path class="cls-1" d="M89.94,40.68,77.47,47.59v9.93A10.49,10.49,0,0,1,67,68H14.69A10.49,10.49,0,0,1,4.21,57.52v-42A10.49,10.49,0,0,1,14.69,5H67A10.49,10.49,0,0,1,77.47,15.5V28.93l12.47,6.9A2.78,2.78,0,0,1,89.94,40.68Z"/><polyline class="cls-2" points="76.6 6.76 40.84 39.13 5.08 6.76"/><text class="cls-3" transform="translate(106.83 56.43)">e<tspan class="cls-4" x="41.53" y="0">v</tspan><tspan class="cls-5" x="78.98" y="0">e</tspan><tspan class="cls-6" x="121.46" y="0">n</tspan><tspan class="cls-7" x="163.97" y="0">t</tspan><tspan class="cls-8" x="189.74" y="0">e</tspan><tspan class="cls-9" x="231.54" y="0">x</tspan><tspan class="cls-10" x="269.83" y="0">t</tspan></text></svg>